<svg xmlns="http://www.w3.org/2000/svg" xmlns:xlink="http://www.w3.org/1999/xlink" preserveAspectRatio="xMidYMid" width="1187" height="1107" viewBox="0 0 1187 1107">
  <defs>
    <style>
      .cls-1 {
        fill: #6761a8;
        fill-rule: evenodd;
      }
    </style>
  </defs>
  <path d="M1186.356,424.229 C1185.711,424.229 1185.711,423.228 1186.356,423.228 C1187.000,423.228 1187.000,424.229 1186.356,424.229 ZM1183.151,966.464 C1182.309,970.678 1181.857,974.599 1181.857,978.901 C1181.857,982.903 1181.857,986.906 1181.857,990.909 C1181.857,991.554 1180.857,991.554 1180.857,990.909 C1180.857,986.573 1180.857,982.237 1180.857,977.901 C1180.857,975.885 1180.667,973.808 1181.063,971.827 C1181.438,969.951 1181.812,968.074 1182.187,966.198 C1183.017,962.048 1183.777,958.110 1183.887,953.874 C1183.975,950.468 1184.245,947.099 1184.874,943.748 C1184.993,943.115 1185.956,943.383 1185.838,944.014 C1185.073,948.089 1184.867,952.205 1184.858,956.344 C1184.851,959.733 1183.814,963.147 1183.151,966.464 ZM1183.038,340.745 C1182.348,348.371 1180.740,355.838 1180.862,363.538 C1180.974,370.605 1181.818,377.637 1181.857,384.706 C1181.861,385.351 1180.861,385.351 1180.857,384.706 C1180.818,377.637 1179.901,370.605 1179.862,363.538 C1179.821,356.140 1181.288,349.037 1181.951,341.713 C1182.650,333.985 1182.825,326.229 1182.849,318.474 C1182.861,314.872 1182.888,311.287 1183.030,307.687 C1183.176,303.981 1183.163,300.317 1181.875,296.788 C1181.653,296.180 1182.619,295.920 1182.839,296.521 C1185.217,303.034 1183.874,310.709 1183.852,317.505 C1183.828,325.254 1183.737,333.022 1183.038,340.745 ZM1180.857,404.717 C1180.857,400.048 1180.857,395.379 1180.857,390.709 C1180.857,390.064 1181.857,390.064 1181.857,390.709 C1181.857,395.379 1181.857,400.048 1181.857,404.717 C1181.857,405.363 1180.857,405.363 1180.857,404.717 ZM517.625,1007.429 C513.252,1007.582 508.934,1008.365 504.555,1008.418 C503.910,1008.427 503.911,1007.426 504.555,1007.418 C509.242,1007.362 513.864,1006.417 518.551,1006.417 C522.883,1006.417 527.215,1006.417 531.547,1006.417 C532.192,1006.417 532.192,1007.418 531.547,1007.418 C526.915,1007.418 522.255,1007.267 517.625,1007.429 ZM535.546,1008.418 C534.901,1008.418 534.901,1007.418 535.546,1007.418 C538.545,1007.418 541.544,1007.418 544.543,1007.418 C545.188,1007.418 545.188,1008.418 544.543,1008.418 C541.544,1008.418 538.545,1008.418 535.546,1008.418 ZM564.538,1007.418 C562.384,1007.487 560.364,1008.118 558.236,1008.315 C556.232,1008.499 554.679,1008.476 552.794,1009.350 C552.213,1009.620 551.704,1008.758 552.289,1008.487 C553.708,1007.829 554.982,1007.468 556.540,1007.418 C558.694,1007.349 560.713,1006.718 562.842,1006.522 C567.677,1006.075 572.681,1006.417 577.534,1006.417 C578.179,1006.417 578.179,1007.418 577.534,1007.418 C573.210,1007.418 568.859,1007.280 564.538,1007.418 ZM580.533,1007.418 C579.889,1007.404 579.888,1006.403 580.533,1006.417 C583.564,1006.486 586.500,1007.350 589.530,1007.418 C590.174,1007.433 590.175,1008.434 589.530,1008.418 C586.499,1008.350 583.563,1007.487 580.533,1007.418 ZM594.529,1009.419 C593.884,1009.419 593.884,1008.418 594.529,1008.418 C597.861,1008.418 601.194,1008.418 604.526,1008.418 C605.171,1008.418 605.171,1009.419 604.526,1009.419 C601.194,1009.419 597.861,1009.419 594.529,1009.419 ZM617.774,1010.351 C617.219,1010.682 616.716,1009.817 617.270,1009.488 C620.698,1007.450 624.741,1008.364 628.519,1008.418 C629.163,1008.428 629.164,1009.428 628.519,1009.419 C624.962,1009.368 621.005,1008.431 617.774,1010.351 ZM637.516,1009.419 C636.872,1009.419 636.872,1008.418 637.516,1008.418 C641.515,1008.418 645.514,1008.418 649.513,1008.418 C650.157,1008.418 650.157,1009.419 649.513,1009.419 C645.514,1009.419 641.515,1009.419 637.516,1009.419 ZM668.007,1079.960 C668.007,1080.606 667.008,1080.606 667.008,1079.960 C667.008,1075.450 667.328,1070.820 666.659,1066.348 C666.166,1063.050 665.704,1059.839 667.076,1056.695 C667.333,1056.105 668.194,1056.614 667.939,1057.200 C666.205,1061.173 667.877,1065.159 667.988,1069.239 C668.085,1072.808 668.007,1076.390 668.007,1079.960 ZM493.059,1047.942 C493.059,1052.944 493.059,1057.947 493.059,1062.951 C493.059,1063.596 492.059,1063.596 492.059,1062.951 C492.059,1057.947 492.059,1052.944 492.059,1047.942 C492.059,1047.297 493.059,1047.297 493.059,1047.942 ZM492.059,1040.937 C492.069,1041.583 491.069,1041.582 491.059,1040.937 C490.995,1036.684 490.343,1032.354 490.024,1028.109 C489.814,1025.305 489.244,1021.902 491.206,1019.571 C491.622,1019.078 492.325,1019.789 491.913,1020.280 C489.911,1022.657 490.966,1026.970 491.070,1029.846 C491.206,1033.564 492.002,1037.218 492.059,1040.937 ZM1177.247,226.934 C1176.649,238.139 1175.877,289.333 1175.235,300.535 C1174.594,311.723 1174.051,322.926 1173.989,334.135 C1173.928,345.087 1174.611,355.835 1175.573,366.733 C1176.501,377.253 1177.289,387.808 1177.373,398.373 C1177.461,409.549 1176.883,420.713 1176.753,431.886 C1176.625,442.929 1177.546,553.725 1178.322,564.717 C1179.069,575.301 1179.790,745.821 1180.888,756.374 C1183.085,777.488 1180.839,798.837 1182.118,820.022 C1182.713,829.876 1183.831,839.594 1182.995,849.476 C1182.138,859.592 1181.959,869.652 1181.427,879.787 C1180.251,902.200 1180.566,924.666 1178.427,947.026 C1177.870,952.850 1177.208,958.660 1176.442,964.460 C1175.786,969.427 1175.886,974.363 1175.886,979.363 C1175.886,983.502 1176.409,987.894 1175.118,991.879 C1174.367,994.199 1174.387,996.389 1174.387,998.781 C1174.387,999.341 1173.634,999.414 1173.436,999.000 C1161.340,999.000 1149.245,999.000 1137.149,999.000 C1125.417,999.000 1113.212,997.461 1101.596,999.641 C1078.489,1003.979 1055.263,1004.011 1032.026,1006.815 C1008.709,1009.628 984.559,1008.005 961.106,1008.005 C936.796,1008.005 912.082,1009.274 887.827,1007.706 C870.484,1006.585 853.114,1006.505 835.741,1006.505 C817.925,1006.504 800.382,1005.369 782.616,1004.412 C764.621,1003.443 746.542,1004.381 728.576,1003.326 C719.566,1002.796 710.589,1001.769 701.549,1002.066 C692.545,1002.363 683.564,1003.248 674.558,1003.438 C638.184,1004.209 601.906,1002.002 565.543,1002.002 C543.382,1002.002 521.226,1002.097 499.071,1002.283 C499.128,1016.128 499.682,1030.013 500.080,1043.848 C500.273,1050.562 501.056,1057.229 501.056,1063.951 C501.056,1069.722 500.354,1076.229 502.038,1081.829 C502.062,1081.909 502.066,1081.982 502.055,1082.049 C513.437,1081.128 524.876,1081.461 536.326,1081.461 C552.472,1081.461 568.619,1081.461 584.765,1081.461 C600.642,1081.461 616.451,1081.434 632.242,1083.338 C646.703,1085.082 661.442,1086.033 676.043,1085.482 C676.130,1079.189 676.422,1072.890 676.177,1066.600 C675.911,1059.756 674.682,1053.017 674.136,1046.194 C673.039,1032.460 673.006,1018.685 673.006,1004.916 C673.006,1004.271 674.006,1004.271 674.006,1004.916 C674.006,1018.678 673.989,1032.468 675.136,1046.194 C675.733,1053.336 677.045,1060.395 677.207,1067.571 C677.341,1073.530 677.109,1079.487 677.035,1085.445 C677.644,1085.419 678.255,1085.408 678.864,1085.377 C686.195,1085.000 693.679,1084.793 700.959,1083.905 C708.536,1082.982 715.918,1084.398 723.491,1084.463 C723.764,1084.466 723.991,1084.689 723.991,1084.963 C723.991,1088.556 724.873,1093.038 723.654,1096.473 C722.644,1099.320 719.502,1098.906 717.168,1098.550 C714.702,1098.173 711.993,1098.471 709.495,1098.471 C706.199,1098.471 702.902,1098.471 699.606,1098.471 C693.641,1098.471 687.674,1098.502 681.709,1098.414 C669.449,1098.233 657.196,1097.698 644.935,1097.528 C638.782,1097.443 632.621,1097.565 626.470,1097.360 C620.461,1097.160 614.538,1096.470 608.525,1096.470 C600.247,1096.470 591.970,1096.602 583.709,1096.174 C576.243,1095.788 568.731,1096.315 561.281,1095.639 C545.484,1094.206 529.865,1094.264 514.052,1095.594 C505.941,1096.277 497.771,1097.379 489.628,1097.480 C481.828,1097.578 474.047,1098.136 466.251,1098.361 C462.051,1098.483 457.753,1098.154 453.570,1098.471 C451.870,1098.600 449.872,1099.464 448.319,1098.403 C446.598,1097.227 447.229,1094.620 447.765,1093.038 C448.190,1091.788 448.497,1090.528 448.711,1089.253 C448.377,1089.323 448.039,1089.375 447.705,1089.448 C447.076,1089.585 446.809,1088.620 447.439,1088.483 C447.908,1088.381 448.382,1088.303 448.852,1088.206 C448.985,1087.138 449.070,1086.061 449.071,1084.963 C449.073,1084.318 450.072,1084.318 450.071,1084.963 C450.069,1085.985 450.005,1086.996 449.901,1088.001 C456.478,1086.698 463.136,1085.852 469.803,1085.152 C477.264,1084.369 484.662,1084.388 492.086,1083.208 C495.085,1082.732 498.090,1082.401 501.098,1082.138 C501.091,1082.122 501.079,1082.112 501.074,1082.095 C499.446,1076.680 500.056,1070.527 500.056,1064.952 C500.056,1057.892 499.208,1050.898 499.080,1043.848 C498.829,1029.999 498.140,1016.143 498.074,1002.292 C483.303,1002.418 468.532,1002.578 453.758,1002.804 C416.688,1003.373 379.535,1002.700 342.484,1003.944 C324.172,1004.559 305.997,1006.705 287.690,1007.299 C268.952,1007.907 250.206,1007.999 231.460,1008.004 C213.144,1008.009 194.904,1009.419 176.567,1008.733 C159.955,1008.111 142.700,1007.434 126.370,1004.229 C107.847,1000.592 88.997,1002.286 70.265,1003.052 C60.522,1003.450 50.759,1003.302 41.025,1003.851 C36.526,1004.104 32.030,1004.428 27.530,1004.655 C25.741,1004.746 16.783,1004.240 16.783,1006.004 C16.783,1006.649 15.783,1006.649 15.783,1006.004 C15.783,1005.504 15.783,1005.004 15.783,1004.503 C15.783,1004.229 16.011,1004.005 16.283,1004.003 C41.005,1003.818 65.786,1001.930 90.508,1001.199 C101.256,1000.881 112.275,1000.403 122.880,1002.520 C134.312,1004.803 145.771,1005.622 157.364,1006.585 C181.427,1008.583 205.154,1007.011 229.210,1007.004 C253.203,1006.998 277.218,1006.964 301.186,1005.740 C319.357,1004.812 337.362,1002.896 355.597,1002.644 C374.039,1002.388 392.485,1002.543 410.929,1002.367 C439.973,1002.092 469.014,1001.487 498.057,1001.185 C498.057,1001.095 498.057,1001.004 498.057,1000.914 C498.057,1000.269 499.056,1000.269 499.057,1000.914 C499.057,1001.001 499.059,1001.089 499.060,1001.176 C507.294,1001.092 515.529,1001.029 523.765,1001.011 C541.931,1000.970 560.097,1001.001 578.262,1001.001 C596.642,1001.001 614.952,1002.502 633.309,1002.502 C651.559,1002.502 669.831,1002.886 688.053,1001.752 C705.908,1000.640 723.399,1002.479 741.230,1002.504 C759.399,1002.531 777.497,1002.904 795.608,1004.410 C813.283,1005.879 831.039,1005.430 848.756,1005.527 C866.255,1005.623 883.722,1007.004 901.200,1007.004 C920.400,1007.004 939.601,1007.004 958.802,1007.004 C976.865,1007.004 994.928,1007.004 1012.991,1007.004 C1022.965,1007.004 1032.712,1005.763 1042.571,1004.341 C1050.663,1003.176 1059.136,1003.828 1067.315,1003.221 C1085.107,1001.901 1102.529,997.250 1120.401,997.672 C1138.058,998.089 1155.713,998.002 1173.375,998.000 C1173.360,997.165 1173.337,996.326 1173.387,995.499 C1173.566,992.540 1174.886,989.941 1174.886,986.935 C1174.886,980.414 1174.202,973.464 1175.094,967.010 C1177.299,951.048 1178.716,934.971 1179.181,918.861 C1179.414,910.790 1179.284,902.712 1179.648,894.644 C1179.993,886.990 1180.556,879.343 1180.773,871.682 C1181.160,858.010 1182.970,844.379 1181.909,830.706 C1181.116,820.478 1180.444,810.196 1180.437,799.933 C1180.430,789.355 1181.043,778.771 1180.684,768.193 C1180.319,757.477 1178.672,586.864 1178.036,576.159 C1177.400,565.453 1176.065,554.761 1175.810,544.043 C1175.287,522.058 1177.062,400.176 1175.494,378.196 C1174.733,367.538 1173.331,356.916 1173.088,346.230 C1172.833,335.027 1173.077,323.823 1173.600,312.630 C1174.641,290.384 1176.223,228.182 1178.007,205.989 C1179.788,183.827 1179.051,161.933 1178.258,139.751 C1177.465,117.604 1178.838,95.455 1178.068,73.315 C1177.711,63.062 1176.759,52.815 1175.997,42.594 C1175.610,37.404 1175.093,32.215 1174.951,27.011 C1174.874,24.205 1174.755,21.554 1174.342,18.769 C1174.085,17.039 1174.285,15.619 1174.904,14.001 C1175.132,13.405 1176.099,13.664 1175.868,14.267 C1174.587,17.618 1175.817,22.139 1175.915,25.735 C1176.016,29.425 1176.250,33.104 1176.542,36.782 C1177.070,43.422 1177.314,50.063 1177.980,56.681 C1179.504,71.812 1179.340,87.027 1179.104,102.214 C1178.859,117.905 1178.983,133.525 1179.635,149.206 C1180.263,164.305 1180.725,179.379 1179.822,194.478 C1179.174,205.312 1177.826,216.102 1177.247,226.934 ZM493.199,1084.038 C489.704,1084.594 486.265,1085.250 482.717,1085.380 C479.026,1085.515 475.410,1085.571 471.730,1085.952 C464.379,1086.714 457.034,1087.589 449.786,1089.044 C449.599,1090.321 449.313,1091.583 448.891,1092.827 C448.609,1093.660 448.163,1094.646 448.188,1095.535 C448.265,1098.255 450.043,1098.036 451.534,1097.776 C452.582,1097.595 453.503,1097.471 454.570,1097.471 C462.510,1097.471 470.413,1097.201 478.344,1096.839 C486.356,1096.474 494.322,1096.322 502.317,1095.622 C518.197,1094.231 534.049,1092.902 550.006,1093.684 C557.609,1094.057 565.085,1094.969 572.713,1094.969 C580.666,1094.969 588.577,1095.469 596.528,1095.469 C600.860,1095.469 605.192,1095.469 609.525,1095.469 C613.411,1095.469 617.178,1095.846 621.050,1096.097 C628.695,1096.592 636.353,1096.409 644.007,1096.515 C659.755,1096.733 675.489,1097.471 691.241,1097.471 C698.758,1097.471 706.274,1097.471 713.790,1097.471 C715.205,1097.471 716.565,1097.437 717.958,1097.678 C719.403,1097.928 721.691,1098.185 722.522,1096.524 C723.670,1094.229 722.991,1091.424 722.991,1088.966 C722.991,1088.052 722.991,1087.137 722.991,1086.223 C722.991,1085.163 722.644,1085.473 721.628,1085.433 C719.847,1085.362 718.072,1085.240 716.297,1085.081 C712.753,1084.763 709.137,1084.299 705.573,1084.480 C701.588,1084.682 697.672,1085.387 693.676,1085.469 C690.186,1085.542 686.711,1085.844 683.232,1086.099 C681.165,1086.250 679.095,1086.344 677.023,1086.406 C677.019,1086.926 677.006,1087.445 677.005,1087.965 C677.003,1088.610 676.005,1088.610 676.005,1087.965 C676.005,1087.632 676.005,1087.298 676.005,1086.965 C676.005,1086.937 676.016,1086.917 676.020,1086.892 C676.021,1086.736 676.026,1086.580 676.028,1086.424 C670.801,1086.552 665.564,1086.474 660.341,1086.383 C652.774,1086.252 645.150,1086.091 637.649,1085.042 C621.687,1082.809 605.738,1082.462 589.650,1082.462 C573.472,1082.462 557.294,1082.462 541.116,1082.462 C525.178,1082.462 508.991,1081.529 493.199,1084.038 ZM1173.887,13.133 C1173.242,13.133 1173.242,12.133 1173.887,12.133 C1174.531,12.133 1174.531,13.133 1173.887,13.133 ZM1165.862,872.870 C1165.862,877.560 1166.242,882.441 1165.722,887.102 C1164.587,897.284 1163.421,907.464 1162.235,917.641 C1161.084,927.516 1159.277,937.545 1158.965,947.483 C1158.868,950.582 1158.563,953.892 1159.117,956.956 C1159.484,958.988 1159.736,961.025 1159.799,963.092 C1159.870,965.390 1159.963,967.703 1159.707,969.990 C1159.484,971.982 1158.944,973.880 1158.864,975.900 C1158.838,976.543 1157.838,976.545 1157.864,975.900 C1157.987,972.791 1158.881,969.822 1158.863,966.694 C1158.842,963.089 1158.679,959.552 1157.882,956.021 C1157.232,953.143 1157.858,949.225 1158.016,946.282 C1158.189,943.052 1158.626,939.898 1159.003,936.691 C1160.557,923.474 1162.109,910.257 1163.606,897.033 C1164.387,890.142 1164.862,883.477 1164.862,876.542 C1164.862,869.450 1164.938,862.541 1165.660,855.486 C1167.028,842.109 1167.122,828.822 1165.959,815.419 C1165.074,805.219 1163.113,795.284 1163.554,785.012 C1163.988,774.903 1164.493,764.382 1162.785,754.360 C1161.084,744.379 1161.619,574.107 1158.382,564.386 C1157.571,561.950 1156.933,560.042 1156.849,557.498 C1156.773,555.187 1156.042,552.986 1155.865,550.745 C1155.656,548.118 1155.414,518.381 1155.157,489.768 C1155.622,516.960 1156.132,542.217 1156.549,546.968 C1156.793,549.755 1157.560,552.464 1157.739,555.247 C1157.914,557.969 1158.099,560.378 1158.971,562.994 C1160.436,567.394 1161.317,571.569 1161.878,576.171 C1162.559,581.766 1162.611,747.419 1163.556,752.962 C1164.291,757.276 1164.651,761.633 1164.766,766.007 C1164.901,771.163 1164.936,776.330 1164.709,781.483 C1164.503,786.150 1164.150,790.891 1164.609,795.553 C1165.635,805.979 1167.271,816.248 1167.661,826.748 C1168.035,836.804 1167.600,846.702 1166.532,856.705 C1165.952,862.127 1165.862,867.419 1165.862,872.870 ZM1152.865,373.815 C1152.865,363.261 1152.437,352.645 1153.551,342.140 C1154.597,332.280 1156.064,322.475 1157.688,312.695 C1161.061,292.383 1159.037,231.593 1160.464,211.146 C1161.894,190.656 1163.094,170.118 1163.919,149.591 C1164.746,129.010 1165.543,108.234 1164.471,87.650 C1163.937,77.395 1162.872,67.202 1161.351,57.048 C1160.067,48.471 1158.212,39.708 1157.890,31.022 C1146.040,31.020 1134.194,30.962 1122.374,30.022 C1111.729,29.175 1101.113,29.954 1090.457,30.011 C1068.125,30.130 1045.789,30.022 1023.456,30.022 C1017.686,30.022 1011.901,28.755 1006.136,28.370 C1000.229,27.975 994.330,28.021 988.414,28.021 C977.258,28.021 966.102,28.021 954.947,28.021 C933.104,28.021 911.086,27.207 889.287,28.793 C871.159,30.111 853.171,31.620 834.997,32.170 C816.418,32.731 797.831,32.938 779.244,32.995 C760.798,33.050 742.166,33.713 723.754,32.383 C705.997,31.100 688.308,29.412 670.544,28.317 C634.770,26.114 598.886,27.250 563.078,25.364 C544.998,24.412 526.445,25.565 508.354,26.372 C490.493,27.169 472.615,27.993 454.732,28.017 C436.726,28.041 418.751,27.020 400.743,27.020 C382.328,27.020 363.912,27.020 345.496,27.020 C308.801,27.020 272.053,27.494 235.414,25.178 C198.520,22.846 161.594,20.663 124.622,20.151 C106.516,19.900 88.179,19.304 70.089,20.172 C60.813,20.618 51.605,21.016 42.316,21.016 C35.646,21.016 24.160,19.071 27.177,29.389 C27.359,30.009 26.394,30.273 26.213,29.655 C25.423,26.953 26.047,24.289 26.195,21.517 C26.210,21.232 26.412,21.034 26.695,21.016 C31.345,20.732 35.664,20.016 40.369,20.016 C45.279,20.016 50.205,20.129 55.113,19.942 C65.894,19.533 76.596,19.015 87.392,19.015 C109.477,19.015 131.546,19.098 153.620,19.879 C197.657,21.437 241.571,25.455 285.641,25.884 C322.532,26.242 359.432,26.019 396.324,26.019 C414.436,26.019 432.519,27.029 450.624,27.020 C468.415,27.012 486.187,26.376 503.955,25.569 C513.344,25.143 522.734,25.153 532.122,24.787 C540.954,24.442 549.892,23.667 558.727,24.134 C576.647,25.080 594.574,26.019 612.524,26.019 C648.274,26.019 683.758,28.075 719.334,31.038 C737.748,32.572 756.324,32.052 774.784,32.006 C793.369,31.960 811.958,31.832 830.537,31.300 C848.771,30.779 866.804,29.515 884.988,28.114 C903.148,26.715 921.322,27.020 939.521,27.020 C958.068,27.020 976.615,27.020 995.162,27.020 C1004.650,27.020 1014.037,29.021 1023.456,29.021 C1031.771,29.021 1040.086,29.021 1048.400,29.021 C1066.678,29.021 1084.952,29.139 1103.224,28.698 C1121.594,28.254 1139.969,30.020 1158.364,30.022 C1158.561,30.022 1158.691,30.120 1158.767,30.250 C1158.820,30.323 1158.860,30.409 1158.864,30.522 C1159.057,36.936 1160.283,43.493 1161.257,49.827 C1162.223,56.112 1163.203,62.398 1163.915,68.719 C1165.405,81.941 1165.917,95.188 1165.851,108.487 C1165.711,136.248 1163.897,163.875 1162.739,191.587 C1162.314,201.756 1161.126,211.888 1160.910,222.066 C1160.698,232.011 1160.929,281.956 1160.475,291.898 C1160.023,301.809 1158.825,311.483 1157.315,321.274 C1155.678,331.892 1153.865,342.732 1153.865,353.495 C1153.865,374.132 1153.264,394.872 1153.919,415.498 C1153.989,417.720 1154.106,424.398 1154.255,433.634 C1152.400,413.733 1152.865,393.791 1152.865,373.815 ZM1154.428,435.639 C1154.673,438.051 1154.921,463.433 1155.157,489.768 C1154.812,469.588 1154.493,448.354 1154.255,433.634 C1154.318,434.302 1154.361,434.971 1154.428,435.639 ZM34.193,957.889 C34.193,960.891 34.193,963.893 34.193,966.895 C34.193,967.539 33.193,967.539 33.193,966.895 C33.193,963.893 33.193,960.891 33.193,957.889 C33.193,957.244 34.193,957.244 34.193,957.889 ZM30.915,883.789 C31.078,880.764 32.091,877.878 32.193,874.840 C32.215,874.197 33.215,874.195 33.193,874.840 C33.099,877.634 32.104,880.283 31.954,883.053 C31.905,883.976 32.337,885.145 32.176,885.980 C32.074,886.507 31.667,887.003 32.047,887.494 C32.437,887.997 31.734,888.712 31.340,888.202 C31.046,887.821 30.631,887.409 30.780,886.867 C31.088,885.743 30.854,884.918 30.915,883.789 ZM34.211,949.016 C32.664,943.872 33.193,938.177 33.193,932.874 C33.193,926.833 33.373,920.901 32.290,914.931 C31.511,910.636 31.220,906.418 31.019,902.067 C30.895,899.386 30.474,895.720 32.340,893.497 C32.755,893.003 33.459,893.715 33.047,894.206 C30.906,896.756 32.070,901.892 32.172,904.947 C32.324,909.494 33.276,913.810 33.850,918.300 C34.507,923.435 34.193,928.707 34.193,933.875 C34.193,938.771 33.749,944.007 35.175,948.751 C35.361,949.371 34.396,949.633 34.211,949.016 ZM60.560,26.019 C56.930,26.019 53.299,26.019 49.669,26.019 C46.618,26.019 43.725,26.923 40.691,27.020 C40.046,27.041 40.048,26.040 40.691,26.019 C44.048,25.912 47.227,25.019 50.614,25.019 C53.929,25.019 57.245,25.019 60.560,25.019 C67.600,25.019 74.639,25.019 81.679,25.019 C82.324,25.019 82.324,26.019 81.679,26.019 C74.639,26.019 67.600,26.019 60.560,26.019 ZM91.676,27.020 C91.031,27.020 91.031,26.019 91.676,26.019 C95.008,26.019 98.341,26.019 101.673,26.019 C102.318,26.019 102.318,27.020 101.673,27.020 C98.341,27.020 95.008,27.020 91.676,27.020 ZM132.894,29.021 C130.905,29.021 128.915,29.021 126.925,29.021 C125.639,29.021 124.214,29.238 122.985,28.817 C119.885,27.756 116.029,26.184 112.922,27.953 C112.361,28.272 111.857,27.407 112.418,27.088 C114.781,25.743 117.533,26.095 120.053,26.825 C121.802,27.332 123.391,28.021 125.240,28.021 C127.246,28.021 129.252,28.021 131.258,28.021 C140.075,28.021 148.845,27.063 157.657,27.020 C158.301,27.017 158.301,28.018 157.657,28.021 C149.390,28.061 141.162,29.021 132.894,29.021 ZM292.484,30.004 C288.920,29.016 285.240,30.075 281.621,30.022 C278.596,29.977 275.612,29.529 272.605,29.254 C269.324,28.953 266.042,29.021 262.751,29.021 C259.204,29.021 255.206,28.516 251.882,29.954 C251.296,30.206 250.787,29.345 251.377,29.089 C254.430,27.770 257.661,28.021 260.923,28.021 C264.811,28.021 268.731,27.860 272.605,28.253 C276.206,28.617 279.834,29.211 283.462,28.961 C286.554,28.749 289.711,28.196 292.750,29.039 C293.371,29.211 293.107,30.177 292.484,30.004 ZM297.868,29.954 C297.313,30.286 296.811,29.420 297.363,29.089 C300.555,27.179 304.096,27.958 307.613,28.021 C308.257,28.032 308.258,29.033 307.613,29.021 C304.307,28.963 300.879,28.151 297.868,29.954 ZM545.543,30.022 C544.898,30.022 544.898,29.021 545.543,29.021 C550.542,29.021 555.540,29.021 560.539,29.021 C561.184,29.021 561.184,30.022 560.539,30.022 C555.540,30.022 550.542,30.022 545.543,30.022 ZM574.535,30.022 C573.868,30.022 573.202,30.022 572.535,30.022 C571.891,30.022 571.891,29.021 572.535,29.021 C573.202,29.021 573.868,29.021 574.535,29.021 C574.868,29.021 575.201,29.021 575.534,29.021 C576.179,29.021 576.179,30.022 575.534,30.022 C575.201,30.022 574.868,30.022 574.535,30.022 ZM587.531,32.023 C586.887,32.018 586.886,31.017 587.531,31.022 C593.214,31.071 598.843,31.974 604.526,32.023 C605.170,32.029 605.171,33.029 604.526,33.024 C598.843,32.975 593.214,32.072 587.531,32.023 ZM617.522,32.023 C616.877,32.023 616.877,31.022 617.522,31.022 C618.189,31.022 618.855,31.022 619.521,31.022 C620.166,31.022 620.166,32.023 619.521,32.023 C618.855,32.023 618.189,32.023 617.522,32.023 ZM985.916,34.020 C981.024,33.904 975.276,32.869 970.671,34.956 C970.089,35.221 969.580,34.358 970.167,34.093 C974.663,32.054 980.038,32.826 984.816,32.987 C992.331,33.241 999.888,33.024 1007.408,33.024 C1008.053,33.024 1008.053,34.024 1007.408,34.024 C1000.250,34.024 993.071,34.189 985.916,34.020 ZM1038.835,35.019 C1034.222,34.896 1029.003,33.992 1024.655,35.957 C1024.073,36.221 1023.564,35.358 1024.151,35.093 C1028.545,33.106 1033.574,33.878 1038.238,34.003 C1044.632,34.173 1051.000,34.971 1057.393,35.025 C1058.038,35.030 1058.038,36.031 1057.393,36.026 C1051.197,35.973 1045.031,35.185 1038.835,35.019 ZM1075.388,37.026 C1076.033,37.026 1076.033,38.027 1075.388,38.027 C1074.743,38.027 1074.743,37.026 1075.388,37.026 ZM1087.385,38.027 C1086.740,38.027 1086.740,37.026 1087.385,37.026 C1089.384,37.026 1091.384,37.026 1093.383,37.026 C1094.028,37.026 1094.028,38.027 1093.383,38.027 C1091.384,38.027 1089.384,38.027 1087.385,38.027 ZM1020.836,990.656 C1021.426,991.596 1023.508,991.137 1024.435,991.159 C1025.322,991.181 1026.502,991.230 1027.161,991.932 C1028.646,993.513 1027.925,996.783 1025.680,997.236 C1023.889,997.597 1019.397,998.018 1018.263,996.091 C1017.197,994.278 1018.161,991.788 1020.205,991.455 C1020.124,991.365 1020.043,991.273 1019.973,991.161 C1019.629,990.613 1020.494,990.111 1020.836,990.656 ZM1019.414,995.830 C1020.387,996.358 1021.530,996.399 1022.614,996.408 C1023.508,996.415 1024.547,996.529 1025.414,996.271 C1026.657,995.902 1027.499,994.122 1026.695,992.937 C1025.508,991.188 1022.635,992.718 1020.873,991.936 C1020.845,992.164 1020.693,992.384 1020.404,992.409 C1019.230,992.511 1018.016,995.071 1019.414,995.830 ZM1006.775,992.517 C1005.968,992.374 1005.463,992.450 1004.743,992.142 C1003.210,991.488 1002.945,992.501 1002.909,993.910 C1002.893,994.554 1001.893,994.556 1001.910,993.910 C1001.939,992.744 1001.965,991.283 1003.256,990.849 C1003.719,990.693 1004.317,990.914 1004.746,991.065 C1005.502,991.331 1006.300,991.298 1007.041,991.551 C1009.563,992.416 1010.111,995.144 1007.497,996.317 C1005.396,997.260 1001.485,998.173 999.285,997.092 C998.254,996.586 997.948,995.536 997.923,994.438 C997.888,992.921 999.898,991.644 1001.277,991.426 C1001.907,991.327 1002.178,992.291 1001.543,992.391 C1000.121,992.615 998.444,993.937 999.096,995.512 C999.479,996.440 1000.537,996.397 1001.377,996.406 C1002.701,996.419 1004.002,996.365 1005.293,996.028 C1005.976,995.850 1006.701,995.664 1007.307,995.288 C1008.444,994.585 1009.013,992.910 1006.775,992.517 ZM979.934,992.777 C980.905,990.389 984.082,989.788 986.391,990.054 C987.967,990.236 991.083,991.340 990.973,993.454 C990.822,996.378 986.739,997.777 984.290,997.322 C981.168,996.741 979.842,994.514 981.643,992.067 C981.315,992.344 981.052,992.664 980.898,993.043 C980.658,993.631 979.691,993.375 979.934,992.777 ZM983.614,996.144 C984.751,996.448 985.920,996.537 987.049,996.131 C988.027,995.778 989.350,995.182 989.805,994.158 C990.227,993.205 989.450,992.494 988.805,991.911 C987.542,990.771 984.587,990.603 982.624,991.467 C982.877,991.616 983.027,991.978 982.769,992.263 C981.404,993.768 981.445,995.565 983.614,996.144 ZM25.346,858.625 C25.873,855.399 26.591,852.204 27.080,848.971 C27.646,845.228 27.621,841.552 27.891,837.796 C28.373,831.073 28.880,824.290 29.522,817.589 C31.467,797.256 30.778,776.692 30.778,756.294 C30.778,745.768 30.857,575.240 30.771,564.715 C30.756,562.765 30.669,557.020 30.532,548.978 C31.017,551.915 31.442,554.850 31.591,557.850 C32.098,568.098 31.778,738.416 31.778,748.674 C31.778,769.281 32.493,790.052 31.090,810.625 C30.738,815.789 30.441,820.974 29.996,826.126 C29.601,830.704 28.853,835.301 28.792,839.902 C28.671,849.152 26.106,858.082 25.629,867.313 C24.578,887.666 27.223,907.933 27.276,928.272 C27.303,938.271 28.019,948.617 27.131,958.581 C26.708,963.335 25.581,968.049 25.405,972.820 C25.317,975.214 25.248,977.426 26.444,979.626 C26.863,980.396 27.216,981.101 27.280,981.991 C27.281,982.012 27.273,982.027 27.272,982.047 C27.563,981.876 27.888,981.737 28.213,981.699 C30.589,981.425 32.998,981.505 35.361,981.122 C39.740,980.411 44.161,979.697 48.601,979.514 C59.559,979.062 70.541,978.790 81.505,978.387 C104.214,977.552 126.619,980.803 149.282,981.315 C193.818,982.320 238.438,981.372 282.988,981.890 C320.554,982.327 358.292,983.409 395.837,981.733 C432.527,980.096 469.348,980.402 506.068,980.402 C580.206,980.402 654.374,980.957 728.490,978.901 C747.067,978.386 765.715,977.941 784.299,978.165 C802.927,978.390 821.383,980.014 840.053,979.748 C858.288,979.489 876.527,979.461 894.759,979.068 C912.641,978.683 930.645,977.759 948.516,978.787 C957.982,979.331 967.417,980.243 976.872,980.946 C985.522,981.588 994.195,981.442 1002.864,981.721 C1020.602,982.293 1038.339,983.220 1056.038,984.524 C1073.917,985.841 1091.796,987.034 1109.721,985.915 C1118.630,985.359 1127.517,984.312 1136.433,983.920 C1141.955,983.677 1160.100,984.382 1161.881,976.767 C1162.011,976.209 1162.862,976.342 1162.862,976.901 C1162.862,977.234 1162.862,977.567 1162.862,977.901 C1162.862,978.185 1162.667,978.337 1162.449,978.370 C1162.469,978.485 1162.477,978.584 1162.451,978.622 C1162.142,979.097 1161.814,979.559 1161.467,980.006 C1160.082,981.392 1160.126,980.724 1158.497,981.385 C1154.404,983.045 1150.141,983.994 1145.742,984.370 C1135.200,985.270 1124.593,985.918 1114.034,986.635 C1091.106,988.190 1068.497,986.266 1045.629,984.786 C1022.025,983.259 998.236,983.666 974.690,981.777 C951.534,979.917 928.766,979.309 905.539,979.829 C868.784,980.654 832.085,981.199 795.383,979.482 C776.904,978.617 758.226,979.166 739.736,979.608 C721.057,980.053 702.380,980.217 683.701,980.601 C609.673,982.123 535.609,981.269 461.568,981.403 C424.648,981.470 387.771,983.403 350.850,983.404 C313.144,983.406 275.444,982.657 237.739,982.457 C201.919,982.266 165.782,983.907 130.040,981.278 C111.553,979.918 93.398,978.807 74.855,979.679 C65.490,980.118 55.960,979.807 46.632,980.645 C42.334,981.032 38.081,981.679 33.826,982.385 C31.098,982.838 28.546,982.388 25.828,983.386 C25.342,983.565 25.006,982.886 25.342,982.550 C25.635,982.256 25.929,981.962 26.222,981.669 C25.966,980.455 24.851,979.423 24.621,978.099 C24.440,977.054 24.360,975.949 24.364,974.887 C24.373,972.010 24.720,969.175 25.143,966.334 C26.228,959.056 26.280,951.959 26.280,944.620 C26.280,929.797 25.927,915.077 25.131,900.275 C24.398,886.641 23.132,872.177 25.346,858.625 ZM28.498,454.939 C29.273,480.919 30.125,525.107 30.532,548.978 C30.298,547.559 30.054,546.139 29.812,544.712 C29.203,541.121 28.904,487.895 28.498,454.939 ZM25.909,420.493 C25.790,415.691 25.950,410.892 26.262,406.101 C26.912,396.150 27.615,386.275 27.811,376.304 C28.008,366.207 28.795,356.137 29.123,346.046 C29.292,340.837 29.192,335.620 29.553,330.418 C29.893,325.506 30.429,320.603 30.648,315.683 C31.063,306.350 32.276,297.165 32.278,287.782 C32.278,282.456 33.121,237.063 33.352,231.730 C33.564,226.833 33.685,221.935 33.731,217.034 C33.830,206.502 33.783,195.981 33.336,185.457 C33.103,179.953 32.824,174.452 32.616,168.947 C32.520,166.408 32.429,163.869 32.373,161.328 C32.311,158.498 32.615,155.384 32.046,152.604 C31.102,147.991 30.037,143.364 29.594,138.667 C29.141,133.872 29.201,129.083 28.604,124.293 C27.320,113.997 26.087,103.583 25.391,93.223 C23.991,72.386 24.764,51.506 24.780,30.643 C24.781,29.998 25.781,29.997 25.780,30.643 C25.769,45.685 25.324,60.732 25.644,75.773 C25.965,90.821 27.439,105.767 29.168,120.691 C30.028,128.120 29.929,135.709 31.198,143.070 C31.804,146.588 32.554,150.077 33.260,153.576 C33.899,156.747 33.340,160.619 33.441,163.868 C33.913,179.118 34.811,194.320 34.773,209.584 C34.747,219.863 34.629,230.156 33.833,240.410 C33.138,249.359 33.503,298.386 32.294,307.300 C31.532,312.913 31.497,318.629 31.028,324.279 C30.622,329.170 30.319,334.038 30.275,338.947 C30.184,349.025 29.420,359.074 29.026,369.141 C28.637,379.059 28.535,388.925 27.783,398.830 C27.007,409.049 26.297,419.162 27.900,429.319 C28.139,430.830 28.328,441.098 28.498,454.939 C28.194,444.744 27.902,437.346 27.654,435.095 C27.112,430.180 26.032,425.450 25.909,420.493 ZM1164.890,11.632 C1153.115,11.787 1141.443,13.133 1129.646,13.133 C1118.402,13.133 1107.158,13.127 1095.913,13.133 C1071.484,13.149 1047.058,13.653 1022.629,13.771 C998.604,13.886 974.761,13.315 950.794,11.736 C927.378,10.194 904.179,10.014 880.737,10.976 C862.613,11.720 844.478,11.652 826.349,12.243 C808.390,12.829 790.424,13.476 772.456,12.866 C735.570,11.613 698.721,10.132 661.812,10.132 C624.571,10.132 587.355,8.631 550.101,8.631 C513.294,8.631 476.528,10.115 439.735,10.133 C421.117,10.141 402.491,10.170 383.882,10.782 C374.328,11.097 364.882,11.509 355.402,12.758 C347.060,13.857 338.081,16.135 329.676,16.135 C310.959,16.135 292.143,16.689 273.445,15.728 C263.682,15.225 253.941,14.423 244.205,13.542 C235.792,12.780 227.293,13.295 218.859,13.629 C201.328,14.323 183.517,15.738 166.045,13.509 C156.518,12.293 147.386,10.132 137.742,10.132 C129.097,10.132 120.567,9.379 111.936,8.946 C93.795,8.034 75.689,6.047 57.519,6.714 C47.749,7.073 38.030,8.295 28.279,8.535 C22.293,8.683 15.204,7.783 9.258,9.493 C9.270,9.537 9.286,9.579 9.286,9.632 C9.325,69.375 12.112,129.119 11.385,188.872 C11.249,200.062 10.586,211.246 10.975,222.435 C11.352,233.285 12.117,284.126 12.255,294.983 C12.538,317.157 13.784,339.285 13.784,361.465 C13.784,383.363 13.965,405.225 14.376,427.116 C14.591,438.567 13.672,549.837 13.025,561.252 C12.411,572.081 12.125,742.928 11.382,753.748 C9.822,776.451 10.785,799.463 10.785,822.224 C10.785,844.856 10.702,867.387 9.675,889.997 C8.675,911.978 9.286,934.078 9.286,956.079 C9.286,966.325 9.286,976.572 9.286,986.818 C9.286,990.923 9.459,995.053 9.112,999.145 C8.921,1001.401 8.220,1005.713 9.786,1007.844 C9.786,1007.230 9.786,1006.617 9.786,1006.004 C9.786,1005.358 10.785,1005.358 10.785,1006.004 C10.785,1007.004 10.785,1008.005 10.785,1009.006 C10.785,1009.369 10.355,1009.651 10.033,1009.438 C7.363,1007.670 7.803,1003.185 8.008,1000.446 C8.408,995.114 8.286,989.778 8.286,984.430 C8.286,969.737 8.286,955.044 8.286,940.350 C8.286,924.878 7.883,909.344 8.508,893.883 C9.143,878.159 9.786,862.525 9.786,846.783 C9.786,823.854 9.786,800.926 9.786,777.998 C9.786,772.077 9.402,766.002 9.898,760.103 C10.326,755.011 10.645,749.913 10.896,744.809 C11.439,733.780 11.777,562.736 12.672,551.729 C13.593,540.400 13.476,429.124 13.118,417.773 C12.771,406.765 12.785,395.767 12.785,384.756 C12.785,362.823 12.667,340.967 11.780,319.050 C11.334,308.026 11.439,296.996 11.002,285.975 C10.573,275.152 9.818,224.329 9.789,213.494 C9.758,202.114 10.430,190.718 10.449,179.330 C10.468,168.016 10.335,156.703 10.176,145.390 C9.859,122.728 9.916,100.061 9.470,77.401 C9.026,54.868 8.306,32.338 8.287,9.798 C7.996,9.899 7.704,9.999 7.419,10.114 C6.821,10.356 6.564,9.388 7.154,9.149 C15.597,5.728 26.163,8.115 35.027,7.116 C46.895,5.777 59.036,5.226 71.015,5.477 C94.022,5.960 116.956,9.131 139.991,9.131 C152.160,9.131 163.991,12.820 176.212,13.411 C187.596,13.963 199.026,13.433 210.406,12.969 C221.614,12.513 233.019,11.536 244.205,12.541 C256.177,13.616 268.172,14.675 280.193,14.995 C289.935,15.254 299.688,15.134 309.433,15.134 C318.422,15.134 327.365,15.456 336.285,14.290 C354.415,11.921 372.181,10.038 390.477,9.595 C409.195,9.141 427.914,9.175 446.636,9.131 C464.892,9.088 483.123,8.053 501.374,7.742 C538.285,7.113 575.431,6.924 612.329,8.088 C631.081,8.680 649.797,9.131 668.560,9.131 C687.358,9.131 706.014,10.022 724.791,10.521 C742.757,10.998 760.740,11.689 778.709,12.037 C796.727,12.387 814.733,11.568 832.740,11.042 C869.126,9.980 905.771,8.033 942.136,10.193 C960.599,11.289 978.930,12.571 997.438,12.733 C1016.523,12.901 1035.607,12.684 1054.691,12.458 C1073.297,12.236 1091.899,12.133 1110.506,12.133 C1119.634,12.133 1128.772,12.253 1137.899,12.133 C1146.920,12.015 1155.869,10.751 1164.890,10.632 C1165.535,10.624 1165.534,11.625 1164.890,11.632 ZM612.524,3.006 C606.843,2.949 601.220,2.006 595.535,2.006 C589.535,2.006 583.534,2.017 577.534,2.006 C565.196,1.982 552.882,1.030 540.545,1.005 C539.900,1.003 539.900,0.003 540.545,0.004 C552.882,0.030 565.195,1.005 577.534,1.005 C583.534,1.005 589.535,1.005 595.535,1.005 C601.220,1.005 606.843,1.949 612.524,2.006 C613.168,2.012 613.169,3.013 612.524,3.006 ZM529.548,1.005 C528.903,1.005 528.903,0.004 529.548,0.004 C530.193,0.004 530.193,1.005 529.548,1.005 ZM519.551,1.005 C513.886,1.005 508.221,1.005 502.556,1.005 C501.911,1.005 501.911,0.004 502.556,0.004 C508.221,0.004 513.886,0.004 519.551,0.004 C520.195,0.004 520.195,1.005 519.551,1.005 ZM495.558,1.005 C487.841,1.080 480.282,3.006 472.565,3.006 C468.566,3.006 464.567,3.013 460.568,3.006 C458.083,3.002 455.629,2.935 453.318,1.937 C452.727,1.682 453.237,0.820 453.823,1.073 C457.084,2.482 461.101,2.006 464.567,2.006 C468.169,2.006 471.807,2.149 475.404,1.926 C482.149,1.507 488.786,0.071 495.558,0.004 C496.203,-0.002 496.202,0.998 495.558,1.005 ZM3.202,151.593 C3.202,150.926 3.202,150.259 3.202,149.591 C3.202,148.946 4.202,148.946 4.202,149.591 C4.202,150.259 4.202,150.926 4.202,151.593 C4.202,152.239 3.202,152.239 3.202,151.593 ZM3.702,132.082 C3.345,132.098 3.205,132.368 3.202,132.582 C3.192,133.227 2.192,133.227 2.202,132.582 C2.216,131.713 2.854,131.120 3.702,131.081 C4.346,131.051 4.344,132.052 3.702,132.082 ZM2.175,60.240 C2.078,62.620 1.202,65.054 1.202,67.386 C1.202,72.161 1.202,76.935 1.202,81.710 C1.202,91.675 2.171,101.606 2.202,111.570 C2.204,112.215 1.205,112.215 1.202,111.570 C1.169,101.028 0.203,90.522 0.203,79.977 C0.203,77.253 0.203,74.529 0.203,71.805 C0.203,69.700 -0.000,67.551 0.492,65.510 C1.545,61.136 0.366,56.409 2.271,52.283 C2.541,51.697 3.402,52.206 3.134,52.787 C2.001,55.243 2.283,57.617 2.175,60.240 ZM462.860,1104.895 C468.674,1105.852 474.734,1105.612 480.596,1105.158 C487.881,1104.594 494.988,1103.951 502.321,1104.053 C509.731,1104.156 517.138,1104.461 524.549,1104.475 C525.194,1104.476 525.194,1105.476 524.549,1105.475 C510.713,1105.449 496.995,1104.547 483.202,1105.928 C477.517,1106.497 471.347,1106.997 465.655,1106.328 C461.835,1105.880 455.231,1103.439 451.924,1106.329 C451.441,1106.752 450.731,1106.047 451.217,1105.622 C454.232,1102.987 459.325,1104.313 462.860,1104.895 ZM666.508,1100.472 C669.624,1100.476 672.636,1100.586 675.638,1101.491 C676.254,1101.676 675.991,1102.643 675.372,1102.456 C672.466,1101.579 669.522,1101.468 666.508,1101.473 C664.671,1101.476 662.299,1101.237 660.762,1102.406 C660.248,1102.796 659.751,1101.926 660.257,1101.541 C661.932,1100.269 664.525,1100.470 666.508,1100.472 ZM697.499,1103.474 C697.832,1103.474 698.165,1103.474 698.498,1103.474 C699.143,1103.474 699.143,1104.475 698.498,1104.475 C698.165,1104.475 697.832,1104.475 697.499,1104.475 C696.854,1104.475 696.854,1103.474 697.499,1103.474 ZM1112.920,1010.406 C1115.400,1010.481 1117.874,1011.173 1120.375,1011.296 C1122.707,1011.409 1125.039,1011.420 1127.373,1011.420 C1128.018,1011.420 1128.018,1012.421 1127.373,1012.421 C1123.598,1012.420 1119.845,1012.376 1116.096,1011.884 C1114.075,1011.619 1108.297,1009.963 1106.811,1012.173 C1106.453,1012.705 1105.587,1012.205 1105.947,1011.668 C1107.475,1009.395 1110.634,1010.337 1112.920,1010.406 ZM1142.116,1010.488 C1143.851,1009.646 1145.456,1009.420 1147.367,1009.419 C1148.012,1009.419 1148.012,1010.420 1147.367,1010.420 C1145.644,1010.421 1144.191,1010.590 1142.621,1011.352 C1142.043,1011.633 1141.536,1010.770 1142.116,1010.488 ZM1156.364,1008.418 C1157.009,1008.418 1157.009,1009.419 1156.364,1009.419 C1155.720,1009.419 1155.720,1008.418 1156.364,1008.418 ZM1180.857,996.912 C1180.788,998.961 1179.927,1000.870 1179.858,1002.916 C1179.836,1003.559 1178.836,1003.561 1178.858,1002.916 C1178.927,1000.866 1179.788,998.957 1179.858,996.912 C1179.879,996.268 1180.879,996.266 1180.857,996.912 Z" class="cls-1"/>
</svg>
